<svg width="108" height="110" viewBox="0 0 108 110" fill="none" xmlns="http://www.w3.org/2000/svg">
<g filter="url(#filter0_dii)">
<rect x="4" y="2" width="100" height="100" rx="20" fill="#E1197E"/>
</g>
<rect x="4" y="2" width="100" height="100" rx="20" stroke="white" stroke-opacity="0.4" stroke-width="3"/>
<g clip-path="url(#clip0)" filter="url(#filter1_d)">
<path d="M75.1724 43.5757C74.5759 44.1684 73.7692 44.501 72.9283 44.501C72.0874 44.501 71.2807 44.1684 70.6841 43.5757L68.0498 40.9402C67.4569 40.344 67.1241 39.5374 67.1241 38.6966C67.1241 37.8558 67.4569 37.0492 68.0498 36.4531L74.0134 30.4894C74.0249 30.4779 74.0334 30.4638 74.0382 30.4484C74.043 30.4329 74.0439 30.4164 74.0409 30.4005C74.0379 30.3846 74.0311 30.3696 74.021 30.3569C74.0109 30.3442 73.9978 30.3342 73.983 30.3277C70.1345 28.68 65.1435 29.5179 61.9748 32.6644C58.942 35.6749 58.7697 40.196 59.8806 44.1488C60.0385 44.7102 60.0381 45.3044 59.8795 45.8657C59.7209 46.427 59.4102 46.9335 58.9818 47.3292L38.7084 66.1683C38.2245 66.6016 37.834 67.129 37.5609 67.7183C37.2878 68.3077 37.1378 68.9465 37.12 69.5958C37.1021 70.2451 37.2169 70.8912 37.4573 71.4946C37.6977 72.098 38.0587 72.646 38.5181 73.1052C38.9775 73.5643 39.5257 73.925 40.1292 74.1651C40.7328 74.4051 41.3789 74.5196 42.0282 74.5015C42.6775 74.4833 43.3162 74.3329 43.9054 74.0595C44.4946 73.7861 45.0218 73.3954 45.4548 72.9113L64.4568 52.6027C64.8483 52.1814 65.3473 51.8747 65.9 51.7157C66.4527 51.5567 67.0384 51.5514 67.5939 51.7003C71.515 52.748 75.9716 52.5511 78.9693 49.598C82.1908 46.4246 82.8857 40.816 81.3248 37.6062C81.3177 37.5921 81.3074 37.5799 81.2947 37.5706C81.282 37.5613 81.2672 37.5551 81.2517 37.5526C81.2361 37.5501 81.2202 37.5513 81.2052 37.5561C81.1902 37.561 81.1765 37.5693 81.1654 37.5804L75.1724 43.5757Z" stroke="#FAFAFA" stroke-width="4" stroke-miterlimit="10" stroke-linecap="round"/>
<path d="M61.1568 56.1371C65.9556 60.6019 71.7763 65.8953 74.0474 67.7867C74.2173 67.9267 74.3559 68.1007 74.4545 68.2975C74.5531 68.4944 74.6093 68.7096 74.6197 68.9295C74.6301 69.1494 74.5943 69.369 74.5147 69.5742C74.4352 69.7794 74.3135 69.9657 74.1576 70.1211L70.2459 74.0316C70.0867 74.1872 69.8975 74.3087 69.6898 74.3889C69.4821 74.469 69.2603 74.506 69.0379 74.4977C68.8154 74.4893 68.597 74.4358 68.3959 74.3404C68.1948 74.245 68.0152 74.1096 67.8681 73.9426C65.931 71.6949 60.7091 66.0781 56.2349 61.4035M50.2502 55.2816C48.2017 53.2894 47.263 52.3625 46.6173 51.732C46.2942 51.411 46.0821 50.9951 46.0119 50.545C45.9417 50.095 46.0171 49.6343 46.2271 49.2301C46.3378 49.0313 46.4759 48.8491 46.6373 48.6887L48.4748 46.8969C48.6649 46.7064 48.8886 46.5526 49.1345 46.4433C49.5228 46.2715 49.9537 46.22 50.3715 46.2957C50.7894 46.3713 51.1749 46.5705 51.4783 46.8676C52.117 47.4875 53.2865 48.6254 55.3935 50.6785L50.2502 55.2816Z" stroke="white" stroke-width="4" stroke-linecap="round" stroke-linejoin="round"/>
<path d="M26.0321 44.6758L29.4786 41.3078C29.5313 41.2561 29.5938 41.2154 29.6624 41.1882C29.731 41.161 29.8044 41.1479 29.8782 41.1496C30.027 41.148 30.1705 41.2048 30.2778 41.3078V41.3078C30.4027 41.4313 30.554 41.5247 30.7203 41.5809C30.8866 41.6372 31.0635 41.6548 31.2376 41.6324C31.6864 41.5832 32.1657 41.4449 32.4763 41.1496C33.1794 40.4699 32.3661 39.1305 32.9849 38.2738C33.6924 37.3361 34.4671 36.4509 35.3029 35.6254C36.006 34.9363 38.7997 32.3066 43.4943 30.4164C44.9956 29.8096 46.6 29.4984 48.2193 29.5C50.8665 29.5 52.9068 30.6719 53.6404 31.3363C54.0807 31.7553 54.4837 32.2117 54.845 32.7004C54.4922 32.5704 54.1318 32.4619 53.7658 32.3758C52.9959 32.2125 52.2063 32.1627 51.422 32.2281C49.8599 32.3559 47.9755 33.0789 46.9689 33.8688C45.34 35.1578 44.6404 36.8828 44.5302 39.1082C44.4505 40.7629 44.8489 41.6981 48.7607 45.6109C48.8944 45.7602 48.9649 45.9555 48.9575 46.1557C48.9501 46.3559 48.8652 46.5455 48.7208 46.6844L46.5857 48.7938C46.4368 48.9397 46.2373 49.0223 46.0288 49.0243C45.8204 49.0262 45.6193 48.9474 45.4677 48.8043C42.8966 46.2332 41.1728 44.9266 40.1943 44.3324C39.2157 43.7383 38.4282 43.5707 38.0497 43.5297C37.3063 43.456 36.5584 43.6145 35.9087 43.9832C35.7947 44.0458 35.6905 44.1248 35.5993 44.2176C35.4472 44.3749 35.3277 44.5607 35.2477 44.7644C35.1678 44.9681 35.129 45.1856 35.1336 45.4044C35.1382 45.6232 35.186 45.8389 35.2744 46.0391C35.3628 46.2392 35.49 46.4199 35.6486 46.5707L35.8489 46.7582C35.901 46.8088 35.9423 46.8693 35.9706 46.9361C35.9988 47.0029 36.0133 47.0747 36.0133 47.1473C36.0133 47.2198 35.9988 47.2916 35.9706 47.3585C35.9423 47.4253 35.901 47.4858 35.8489 47.5363L32.406 50.8984C32.3538 50.9513 32.2915 50.993 32.2229 51.0212C32.1542 51.0494 32.0806 51.0634 32.0064 51.0625C31.8576 51.064 31.7142 51.0072 31.6068 50.9043L26.0321 45.4633C25.9313 45.357 25.875 45.2161 25.875 45.0695C25.875 44.923 25.9313 44.7821 26.0321 44.6758V44.6758Z" stroke="white" stroke-width="4" stroke-linecap="round" stroke-linejoin="round"/>
</g>
<defs>
<filter id="filter0_dii" x="0" y="2" width="108" height="108" filterUnits="userSpaceOnUse" color-interpolation-filters="sRGB">
<feFlood flood-opacity="0" result="BackgroundImageFix"/>
<feColorMatrix in="SourceAlpha" type="matrix" values="0 0 0 0 0 0 0 0 0 0 0 0 0 0 0 0 0 0 127 0"/>
<feOffset dy="4"/>
<feGaussianBlur stdDeviation="2"/>
<feColorMatrix type="matrix" values="0 0 0 0 0 0 0 0 0 0 0 0 0 0 0 0 0 0 0.25 0"/>
<feBlend mode="normal" in2="BackgroundImageFix" result="effect1_dropShadow"/>
<feBlend mode="normal" in="SourceGraphic" in2="effect1_dropShadow" result="shape"/>
<feColorMatrix in="SourceAlpha" type="matrix" values="0 0 0 0 0 0 0 0 0 0 0 0 0 0 0 0 0 0 127 0" result="hardAlpha"/>
<feOffset dx="4"/>
<feGaussianBlur stdDeviation="2"/>
<feComposite in2="hardAlpha" operator="arithmetic" k2="-1" k3="1"/>
<feColorMatrix type="matrix" values="0 0 0 0 0 0 0 0 0 0 0 0 0 0 0 0 0 0 0.25 0"/>
<feBlend mode="normal" in2="shape" result="effect2_innerShadow"/>
<feColorMatrix in="SourceAlpha" type="matrix" values="0 0 0 0 0 0 0 0 0 0 0 0 0 0 0 0 0 0 127 0" result="hardAlpha"/>
<feOffset dx="-4"/>
<feGaussianBlur stdDeviation="2"/>
<feComposite in2="hardAlpha" operator="arithmetic" k2="-1" k3="1"/>
<feColorMatrix type="matrix" values="0 0 0 0 0 0 0 0 0 0 0 0 0 0 0 0 0 0 0.25 0"/>
<feBlend mode="normal" in2="effect2_innerShadow" result="effect3_innerShadow"/>
</filter>
<filter id="filter1_d" x="20" y="22" width="68" height="68" filterUnits="userSpaceOnUse" color-interpolation-filters="sRGB">
<feFlood flood-opacity="0" result="BackgroundImageFix"/>
<feColorMatrix in="SourceAlpha" type="matrix" values="0 0 0 0 0 0 0 0 0 0 0 0 0 0 0 0 0 0 127 0"/>
<feOffset dy="4"/>
<feGaussianBlur stdDeviation="2"/>
<feColorMatrix type="matrix" values="0 0 0 0 0.14902 0 0 0 0 0.196078 0 0 0 0 0.219608 0 0 0 0.25 0"/>
<feBlend mode="normal" in2="BackgroundImageFix" result="effect1_dropShadow"/>
<feBlend mode="normal" in="SourceGraphic" in2="effect1_dropShadow" result="shape"/>
</filter>
<clipPath id="clip0">
<rect width="60" height="60" fill="white" transform="translate(24 22)"/>
</clipPath>
</defs>
</svg>
