<svg width="108" height="110" viewBox="0 0 108 110" fill="none" xmlns="http://www.w3.org/2000/svg">
<g filter="url(#filter0_dii)">
<rect x="4" y="2" width="100" height="100" rx="20" fill="#A6DD27"/>
</g>
<rect x="4" y="2" width="100" height="100" rx="20" stroke="white" stroke-opacity="0.4" stroke-width="3"/>
<g clip-path="url(#clip0)" filter="url(#filter1_d)">
<path d="M54 33.25C56.5888 33.25 58.6875 31.1513 58.6875 28.5625C58.6875 25.9737 56.5888 23.875 54 23.875C51.4112 23.875 49.3125 25.9737 49.3125 28.5625C49.3125 31.1513 51.4112 33.25 54 33.25Z" stroke="#FAFAFA" stroke-width="4" stroke-linejoin="round"/>
<path d="M47.9334 54.1607C48.2732 52.0443 48.4256 49.9982 47.8748 48.5837C47.406 47.3673 46.3865 46.6865 45.156 46.2224L34.3127 42.7138C32.9064 42.2451 31.5928 41.4599 31.5002 39.9083C31.383 37.9162 33.1408 36.6271 34.8986 37.0958C34.8986 37.0958 45.2111 40.7451 54.0002 40.7451C62.7892 40.7451 72.9846 37.1122 72.9846 37.1122C75.0939 36.5263 76.5002 38.1669 76.5002 39.9001C76.5002 41.5654 75.2111 42.1513 73.6877 42.7056L63.3752 46.4451C62.4377 46.7966 60.9142 47.4997 60.3283 48.5755C59.6252 49.8353 59.7424 52.0361 60.0822 54.1525L60.7736 57.6247L65.1576 76.8318C65.4857 78.3728 64.4193 79.813 62.8842 80.0825C61.349 80.3521 60.0939 79.3044 59.6392 77.8138L55.2377 64.2283C55.026 63.5767 54.8385 62.9177 54.6752 62.2513L54.0002 59.4997L53.3791 62.0368C53.1822 62.8454 52.9556 63.6454 52.6994 64.4369L48.3752 77.8021C47.9064 79.3079 46.676 80.3509 45.1408 80.0825C43.6056 79.8142 42.5158 78.2556 42.8603 76.8318L47.242 57.6329L47.9334 54.1607Z" stroke="#FAFAFA" stroke-width="4" stroke-linejoin="round"/>
</g>
<defs>
<filter id="filter0_dii" x="0" y="2" width="108" height="108" filterUnits="userSpaceOnUse" color-interpolation-filters="sRGB">
<feFlood flood-opacity="0" result="BackgroundImageFix"/>
<feColorMatrix in="SourceAlpha" type="matrix" values="0 0 0 0 0 0 0 0 0 0 0 0 0 0 0 0 0 0 127 0"/>
<feOffset dy="4"/>
<feGaussianBlur stdDeviation="2"/>
<feColorMatrix type="matrix" values="0 0 0 0 0 0 0 0 0 0 0 0 0 0 0 0 0 0 0.25 0"/>
<feBlend mode="normal" in2="BackgroundImageFix" result="effect1_dropShadow"/>
<feBlend mode="normal" in="SourceGraphic" in2="effect1_dropShadow" result="shape"/>
<feColorMatrix in="SourceAlpha" type="matrix" values="0 0 0 0 0 0 0 0 0 0 0 0 0 0 0 0 0 0 127 0" result="hardAlpha"/>
<feOffset dx="4"/>
<feGaussianBlur stdDeviation="2"/>
<feComposite in2="hardAlpha" operator="arithmetic" k2="-1" k3="1"/>
<feColorMatrix type="matrix" values="0 0 0 0 0 0 0 0 0 0 0 0 0 0 0 0 0 0 0.25 0"/>
<feBlend mode="normal" in2="shape" result="effect2_innerShadow"/>
<feColorMatrix in="SourceAlpha" type="matrix" values="0 0 0 0 0 0 0 0 0 0 0 0 0 0 0 0 0 0 127 0" result="hardAlpha"/>
<feOffset dx="-4"/>
<feGaussianBlur stdDeviation="2"/>
<feComposite in2="hardAlpha" operator="arithmetic" k2="-1" k3="1"/>
<feColorMatrix type="matrix" values="0 0 0 0 0 0 0 0 0 0 0 0 0 0 0 0 0 0 0.25 0"/>
<feBlend mode="normal" in2="effect2_innerShadow" result="effect3_innerShadow"/>
</filter>
<filter id="filter1_d" x="20" y="22" width="68" height="68" filterUnits="userSpaceOnUse" color-interpolation-filters="sRGB">
<feFlood flood-opacity="0" result="BackgroundImageFix"/>
<feColorMatrix in="SourceAlpha" type="matrix" values="0 0 0 0 0 0 0 0 0 0 0 0 0 0 0 0 0 0 127 0"/>
<feOffset dy="4"/>
<feGaussianBlur stdDeviation="2"/>
<feColorMatrix type="matrix" values="0 0 0 0 0.14902 0 0 0 0 0.196078 0 0 0 0 0.219608 0 0 0 0.25 0"/>
<feBlend mode="normal" in2="BackgroundImageFix" result="effect1_dropShadow"/>
<feBlend mode="normal" in="SourceGraphic" in2="effect1_dropShadow" result="shape"/>
</filter>
<clipPath id="clip0">
<rect width="60" height="60" fill="white" transform="translate(24 22)"/>
</clipPath>
</defs>
</svg>
