<svg width="108" height="110" viewBox="0 0 108 110" fill="none" xmlns="http://www.w3.org/2000/svg">
<g filter="url(#filter0_dii)">
<rect x="4" y="2" width="100" height="100" rx="20" fill="#E1197E"/>
</g>
<rect x="4" y="2" width="100" height="100" rx="20" stroke="white" stroke-opacity="0.4" stroke-width="3"/>
<g filter="url(#filter1_d)">
<path d="M78.1188 28.306C78.0989 28.2098 78.0519 28.1213 77.9834 28.0509C77.9149 27.9806 77.8277 27.9312 77.7321 27.9087C71.3594 26.3501 56.6383 31.9036 48.6543 39.8817C47.2314 41.293 45.934 42.8253 44.7766 44.4614C42.3157 44.2388 39.8547 44.4263 37.7594 45.3403C31.8426 47.9419 30.1211 54.7364 29.6407 57.6532C29.6146 57.813 29.6258 57.9767 29.6732 58.1316C29.7206 58.2864 29.803 58.4282 29.9141 58.5461C30.0251 58.6639 30.1618 58.7546 30.3135 58.8111C30.4653 58.8677 30.628 58.8885 30.7891 58.872L40.2895 57.829C40.2961 58.5456 40.3391 59.2613 40.4184 59.9735C40.468 60.4658 40.6876 60.9254 41.0395 61.2731L44.718 64.9517C45.0661 65.3038 45.5261 65.5234 46.0188 65.5728C46.7267 65.6517 47.4382 65.6947 48.1504 65.7017L47.1086 75.1939C47.0924 75.3547 47.1133 75.5172 47.1699 75.6687C47.2264 75.8202 47.317 75.9567 47.4347 76.0675C47.5524 76.1784 47.694 76.2608 47.8486 76.3082C48.0032 76.3557 48.1666 76.3669 48.3262 76.3411C51.2442 75.8724 58.0528 74.1509 60.6391 68.2353C61.5532 66.1376 61.7407 63.6896 61.5297 61.2403C63.1707 60.0841 64.7074 58.7865 66.1223 57.3626C74.1356 49.3939 79.654 34.9962 78.1188 28.306ZM58.9997 47.0396C58.2997 46.3398 57.823 45.4482 57.6299 44.4775C57.4367 43.5068 57.5357 42.5006 57.9144 41.5862C58.2931 40.6718 58.9345 39.8902 59.7574 39.3403C60.5803 38.7904 61.5478 38.4969 62.5375 38.4969C63.5273 38.4969 64.4948 38.7904 65.3177 39.3403C66.1406 39.8902 66.782 40.6718 67.1607 41.5862C67.5394 42.5006 67.6384 43.5068 67.4452 44.4775C67.2521 45.4482 66.7754 46.3398 66.0754 47.0396C65.6112 47.5048 65.0597 47.8739 64.4527 48.1257C63.8456 48.3776 63.1948 48.5072 62.5375 48.5072C61.8803 48.5072 61.2295 48.3776 60.6224 48.1257C60.0154 47.8739 59.4639 47.5048 58.9997 47.0396V47.0396Z" stroke="#FAFAFA" stroke-width="4" stroke-linecap="round" stroke-linejoin="round"/>
<path d="M36.8484 63.25C35.6802 63.3934 34.5934 63.923 33.7605 64.7547C31.6957 66.8266 31.5 74.5 31.5 74.5C31.5 74.5 39.1781 74.3043 41.2441 72.2371C42.0792 71.4056 42.6097 70.3169 42.75 69.1469" stroke="#FAFAFA" stroke-width="4" stroke-linecap="round" stroke-linejoin="round"/>
</g>
<defs>
<filter id="filter0_dii" x="0" y="2" width="108" height="108" filterUnits="userSpaceOnUse" color-interpolation-filters="sRGB">
<feFlood flood-opacity="0" result="BackgroundImageFix"/>
<feColorMatrix in="SourceAlpha" type="matrix" values="0 0 0 0 0 0 0 0 0 0 0 0 0 0 0 0 0 0 127 0"/>
<feOffset dy="4"/>
<feGaussianBlur stdDeviation="2"/>
<feColorMatrix type="matrix" values="0 0 0 0 0 0 0 0 0 0 0 0 0 0 0 0 0 0 0.25 0"/>
<feBlend mode="normal" in2="BackgroundImageFix" result="effect1_dropShadow"/>
<feBlend mode="normal" in="SourceGraphic" in2="effect1_dropShadow" result="shape"/>
<feColorMatrix in="SourceAlpha" type="matrix" values="0 0 0 0 0 0 0 0 0 0 0 0 0 0 0 0 0 0 127 0" result="hardAlpha"/>
<feOffset dx="4"/>
<feGaussianBlur stdDeviation="2"/>
<feComposite in2="hardAlpha" operator="arithmetic" k2="-1" k3="1"/>
<feColorMatrix type="matrix" values="0 0 0 0 0 0 0 0 0 0 0 0 0 0 0 0 0 0 0.25 0"/>
<feBlend mode="normal" in2="shape" result="effect2_innerShadow"/>
<feColorMatrix in="SourceAlpha" type="matrix" values="0 0 0 0 0 0 0 0 0 0 0 0 0 0 0 0 0 0 127 0" result="hardAlpha"/>
<feOffset dx="-4"/>
<feGaussianBlur stdDeviation="2"/>
<feComposite in2="hardAlpha" operator="arithmetic" k2="-1" k3="1"/>
<feColorMatrix type="matrix" values="0 0 0 0 0 0 0 0 0 0 0 0 0 0 0 0 0 0 0.25 0"/>
<feBlend mode="normal" in2="effect2_innerShadow" result="effect3_innerShadow"/>
</filter>
<filter id="filter1_d" x="20" y="22" width="68" height="68" filterUnits="userSpaceOnUse" color-interpolation-filters="sRGB">
<feFlood flood-opacity="0" result="BackgroundImageFix"/>
<feColorMatrix in="SourceAlpha" type="matrix" values="0 0 0 0 0 0 0 0 0 0 0 0 0 0 0 0 0 0 127 0"/>
<feOffset dy="4"/>
<feGaussianBlur stdDeviation="2"/>
<feColorMatrix type="matrix" values="0 0 0 0 0.14902 0 0 0 0 0.196078 0 0 0 0 0.219608 0 0 0 0.25 0"/>
<feBlend mode="normal" in2="BackgroundImageFix" result="effect1_dropShadow"/>
<feBlend mode="normal" in="SourceGraphic" in2="effect1_dropShadow" result="shape"/>
</filter>
</defs>
</svg>
