<svg width="108" height="110" viewBox="0 0 108 110" fill="none" xmlns="http://www.w3.org/2000/svg">
<g filter="url(#filter0_dii)">
<rect x="4" y="2" width="100" height="100" rx="20" fill="#E1197E"/>
</g>
<rect x="4" y="2" width="100" height="100" rx="20" stroke="white" stroke-opacity="0.4" stroke-width="3"/>
<g clip-path="url(#clip0)" filter="url(#filter1_d)">
<path d="M48.375 50.125V27.625C48.375 26.6304 48.7701 25.6766 49.4734 24.9733C50.1766 24.2701 51.1304 23.875 52.125 23.875C53.1196 23.875 54.0734 24.2701 54.7766 24.9733C55.4799 25.6766 55.875 26.6304 55.875 27.625V50.125M33.375 59.5V38.875C33.375 37.8804 33.7701 36.9266 34.4733 36.2233C35.1766 35.5201 36.1304 35.125 37.125 35.125V35.125C38.1196 35.125 39.0734 35.5201 39.7766 36.2233C40.4799 36.9266 40.875 37.8804 40.875 38.875V52L33.375 59.5ZM40.875 52V31.375C40.875 30.3804 41.2701 29.4266 41.9734 28.7233C42.6766 28.0201 43.6304 27.625 44.625 27.625C45.6196 27.625 46.5734 28.0201 47.2766 28.7233C47.9799 29.4266 48.375 30.3804 48.375 31.375V50.125L40.875 52ZM55.875 50.2422V33.25C55.875 32.2554 56.2701 31.3016 56.9734 30.5983C57.6766 29.8951 58.6304 29.5 59.625 29.5V29.5C60.6196 29.5 61.5734 29.8951 62.2766 30.5983C62.9799 31.3016 63.375 32.2554 63.375 33.25V59.5L55.875 50.2422Z" stroke="#FAFAFA" stroke-width="4" stroke-linecap="round" stroke-linejoin="round"/>
<path d="M33.375 59.4997C33.375 73.2576 40.875 80.1247 51.1875 80.1247C61.5 80.1247 65.6848 75.4841 68.0625 69.8122L74.2395 52.9372C75.0199 50.822 74.666 48.8603 72.8484 47.8279C71.0297 46.7943 68.6402 47.3263 67.6559 49.1966L63.375 59.4997" stroke="#FAFAFA" stroke-width="4" stroke-linecap="round" stroke-linejoin="round"/>
</g>
<defs>
<filter id="filter0_dii" x="0" y="2" width="108" height="108" filterUnits="userSpaceOnUse" color-interpolation-filters="sRGB">
<feFlood flood-opacity="0" result="BackgroundImageFix"/>
<feColorMatrix in="SourceAlpha" type="matrix" values="0 0 0 0 0 0 0 0 0 0 0 0 0 0 0 0 0 0 127 0"/>
<feOffset dy="4"/>
<feGaussianBlur stdDeviation="2"/>
<feColorMatrix type="matrix" values="0 0 0 0 0 0 0 0 0 0 0 0 0 0 0 0 0 0 0.25 0"/>
<feBlend mode="normal" in2="BackgroundImageFix" result="effect1_dropShadow"/>
<feBlend mode="normal" in="SourceGraphic" in2="effect1_dropShadow" result="shape"/>
<feColorMatrix in="SourceAlpha" type="matrix" values="0 0 0 0 0 0 0 0 0 0 0 0 0 0 0 0 0 0 127 0" result="hardAlpha"/>
<feOffset dx="4"/>
<feGaussianBlur stdDeviation="2"/>
<feComposite in2="hardAlpha" operator="arithmetic" k2="-1" k3="1"/>
<feColorMatrix type="matrix" values="0 0 0 0 0 0 0 0 0 0 0 0 0 0 0 0 0 0 0.25 0"/>
<feBlend mode="normal" in2="shape" result="effect2_innerShadow"/>
<feColorMatrix in="SourceAlpha" type="matrix" values="0 0 0 0 0 0 0 0 0 0 0 0 0 0 0 0 0 0 127 0" result="hardAlpha"/>
<feOffset dx="-4"/>
<feGaussianBlur stdDeviation="2"/>
<feComposite in2="hardAlpha" operator="arithmetic" k2="-1" k3="1"/>
<feColorMatrix type="matrix" values="0 0 0 0 0 0 0 0 0 0 0 0 0 0 0 0 0 0 0.25 0"/>
<feBlend mode="normal" in2="effect2_innerShadow" result="effect3_innerShadow"/>
</filter>
<filter id="filter1_d" x="20" y="22" width="68" height="68" filterUnits="userSpaceOnUse" color-interpolation-filters="sRGB">
<feFlood flood-opacity="0" result="BackgroundImageFix"/>
<feColorMatrix in="SourceAlpha" type="matrix" values="0 0 0 0 0 0 0 0 0 0 0 0 0 0 0 0 0 0 127 0"/>
<feOffset dy="4"/>
<feGaussianBlur stdDeviation="2"/>
<feColorMatrix type="matrix" values="0 0 0 0 0.14902 0 0 0 0 0.196078 0 0 0 0 0.219608 0 0 0 0.25 0"/>
<feBlend mode="normal" in2="BackgroundImageFix" result="effect1_dropShadow"/>
<feBlend mode="normal" in="SourceGraphic" in2="effect1_dropShadow" result="shape"/>
</filter>
<clipPath id="clip0">
<rect width="60" height="60" fill="white" transform="translate(24 22)"/>
</clipPath>
</defs>
</svg>
