<svg width="108" height="110" viewBox="0 0 108 110" fill="none" xmlns="http://www.w3.org/2000/svg">
<g filter="url(#filter0_dii)">
<rect x="4" y="2" width="100" height="100" rx="20" fill="#A6DD27"/>
</g>
<rect x="4" y="2" width="100" height="100" rx="20" stroke="white" stroke-opacity="0.4" stroke-width="3"/>
<g filter="url(#filter1_d)">
<path d="M53.9603 35.125C44.8267 35.125 35.4575 40.4113 28.0818 50.984C27.8712 51.2891 27.7558 51.6498 27.7502 52.0204C27.7446 52.391 27.8489 52.755 28.0501 53.0664C33.7173 61.9375 42.9611 68.875 53.9603 68.875C64.84 68.875 74.2735 61.9164 79.9513 53.0254C80.1478 52.7201 80.2522 52.3648 80.2522 52.0018C80.2522 51.6387 80.1478 51.2834 79.9513 50.9781C74.2607 42.1891 64.7579 35.125 53.9603 35.125Z" stroke="#FAFAFA" stroke-width="4" stroke-linecap="round" stroke-linejoin="round"/>
<path d="M54 61.375C59.1777 61.375 63.375 57.1777 63.375 52C63.375 46.8223 59.1777 42.625 54 42.625C48.8223 42.625 44.625 46.8223 44.625 52C44.625 57.1777 48.8223 61.375 54 61.375Z" stroke="#FAFAFA" stroke-width="4" stroke-miterlimit="10"/>
</g>
<defs>
<filter id="filter0_dii" x="0" y="2" width="108" height="108" filterUnits="userSpaceOnUse" color-interpolation-filters="sRGB">
<feFlood flood-opacity="0" result="BackgroundImageFix"/>
<feColorMatrix in="SourceAlpha" type="matrix" values="0 0 0 0 0 0 0 0 0 0 0 0 0 0 0 0 0 0 127 0"/>
<feOffset dy="4"/>
<feGaussianBlur stdDeviation="2"/>
<feColorMatrix type="matrix" values="0 0 0 0 0 0 0 0 0 0 0 0 0 0 0 0 0 0 0.25 0"/>
<feBlend mode="normal" in2="BackgroundImageFix" result="effect1_dropShadow"/>
<feBlend mode="normal" in="SourceGraphic" in2="effect1_dropShadow" result="shape"/>
<feColorMatrix in="SourceAlpha" type="matrix" values="0 0 0 0 0 0 0 0 0 0 0 0 0 0 0 0 0 0 127 0" result="hardAlpha"/>
<feOffset dx="4"/>
<feGaussianBlur stdDeviation="2"/>
<feComposite in2="hardAlpha" operator="arithmetic" k2="-1" k3="1"/>
<feColorMatrix type="matrix" values="0 0 0 0 0 0 0 0 0 0 0 0 0 0 0 0 0 0 0.25 0"/>
<feBlend mode="normal" in2="shape" result="effect2_innerShadow"/>
<feColorMatrix in="SourceAlpha" type="matrix" values="0 0 0 0 0 0 0 0 0 0 0 0 0 0 0 0 0 0 127 0" result="hardAlpha"/>
<feOffset dx="-4"/>
<feGaussianBlur stdDeviation="2"/>
<feComposite in2="hardAlpha" operator="arithmetic" k2="-1" k3="1"/>
<feColorMatrix type="matrix" values="0 0 0 0 0 0 0 0 0 0 0 0 0 0 0 0 0 0 0.25 0"/>
<feBlend mode="normal" in2="effect2_innerShadow" result="effect3_innerShadow"/>
</filter>
<filter id="filter1_d" x="20" y="22" width="68" height="68" filterUnits="userSpaceOnUse" color-interpolation-filters="sRGB">
<feFlood flood-opacity="0" result="BackgroundImageFix"/>
<feColorMatrix in="SourceAlpha" type="matrix" values="0 0 0 0 0 0 0 0 0 0 0 0 0 0 0 0 0 0 127 0"/>
<feOffset dy="4"/>
<feGaussianBlur stdDeviation="2"/>
<feColorMatrix type="matrix" values="0 0 0 0 0.14902 0 0 0 0 0.196078 0 0 0 0 0.219608 0 0 0 0.25 0"/>
<feBlend mode="normal" in2="BackgroundImageFix" result="effect1_dropShadow"/>
<feBlend mode="normal" in="SourceGraphic" in2="effect1_dropShadow" result="shape"/>
</filter>
</defs>
</svg>
